<svg width="22" height="22" viewBox="0 0 22 22" fill="none" xmlns="http://www.w3.org/2000/svg">
<g clip-path="url(#clip0_1_409)">
<path d="M6.97263 1.80093C7.06635 1.64448 7.21838 1.53167 7.39527 1.48732C7.57216 1.44297 7.75943 1.4707 7.91587 1.56443C8.07232 1.65815 8.18513 1.81018 8.22948 1.98707C8.27383 2.16396 8.2461 2.35123 8.15238 2.50768L4.65162 8.3418H17.3484L13.8462 2.50768C13.7525 2.35123 13.7248 2.16396 13.7691 1.98707C13.8135 1.81018 13.9263 1.65815 14.0827 1.56443C14.2392 1.4707 14.4265 1.44297 14.6034 1.48732C14.7802 1.53167 14.9323 1.64448 15.026 1.80093L18.9516 8.3418H21.3125C21.4948 8.3418 21.6697 8.41423 21.7986 8.54316C21.9276 8.6721 22 8.84696 22 9.0293V11.7793C22 11.9616 21.9276 12.1365 21.7986 12.2654C21.6697 12.3944 21.4948 12.4668 21.3125 12.4668H20.625V19.3418C20.625 20.0711 20.3353 20.7706 19.8195 21.2863C19.3038 21.8021 18.6043 22.0918 17.875 22.0918H4.125C3.39565 22.0918 2.69618 21.8021 2.18046 21.2863C1.66473 20.7706 1.375 20.0711 1.375 19.3418V12.4668H0.6875C0.505164 12.4668 0.330295 12.3944 0.201364 12.2654C0.0724328 12.1365 0 11.9616 0 11.7793V9.0293C0 8.84696 0.0724328 8.6721 0.201364 8.54316C0.330295 8.41423 0.505164 8.3418 0.6875 8.3418H3.04838L6.97125 1.80093H6.97263ZM4.8125 14.5293C4.8125 14.347 4.74007 14.1721 4.61114 14.0432C4.4822 13.9142 4.30734 13.8418 4.125 13.8418C3.94266 13.8418 3.7678 13.9142 3.63886 14.0432C3.50993 14.1721 3.4375 14.347 3.4375 14.5293V18.6543C3.4375 18.8366 3.50993 19.0115 3.63886 19.1404C3.7678 19.2694 3.94266 19.3418 4.125 19.3418C4.30734 19.3418 4.4822 19.2694 4.61114 19.1404C4.74007 19.0115 4.8125 18.8366 4.8125 18.6543V14.5293ZM8.25 14.5293C8.25 14.347 8.17757 14.1721 8.04864 14.0432C7.9197 13.9142 7.74484 13.8418 7.5625 13.8418C7.38016 13.8418 7.2053 13.9142 7.07636 14.0432C6.94743 14.1721 6.875 14.347 6.875 14.5293V18.6543C6.875 18.8366 6.94743 19.0115 7.07636 19.1404C7.2053 19.2694 7.38016 19.3418 7.5625 19.3418C7.74484 19.3418 7.9197 19.2694 8.04864 19.1404C8.17757 19.0115 8.25 18.8366 8.25 18.6543V14.5293ZM11.6875 14.5293C11.6875 14.347 11.6151 14.1721 11.4861 14.0432C11.3572 13.9142 11.1823 13.8418 11 13.8418C10.8177 13.8418 10.6428 13.9142 10.5139 14.0432C10.3849 14.1721 10.3125 14.347 10.3125 14.5293V18.6543C10.3125 18.8366 10.3849 19.0115 10.5139 19.1404C10.6428 19.2694 10.8177 19.3418 11 19.3418C11.1823 19.3418 11.3572 19.2694 11.4861 19.1404C11.6151 19.0115 11.6875 18.8366 11.6875 18.6543V14.5293ZM15.125 14.5293C15.125 14.347 15.0526 14.1721 14.9236 14.0432C14.7947 13.9142 14.6198 13.8418 14.4375 13.8418C14.2552 13.8418 14.0803 13.9142 13.9514 14.0432C13.8224 14.1721 13.75 14.347 13.75 14.5293V18.6543C13.75 18.8366 13.8224 19.0115 13.9514 19.1404C14.0803 19.2694 14.2552 19.3418 14.4375 19.3418C14.6198 19.3418 14.7947 19.2694 14.9236 19.1404C15.0526 19.0115 15.125 18.8366 15.125 18.6543V14.5293ZM18.5625 14.5293C18.5625 14.347 18.4901 14.1721 18.3611 14.0432C18.2322 13.9142 18.0573 13.8418 17.875 13.8418C17.6927 13.8418 17.5178 13.9142 17.3889 14.0432C17.2599 14.1721 17.1875 14.347 17.1875 14.5293V18.6543C17.1875 18.8366 17.2599 19.0115 17.3889 19.1404C17.5178 19.2694 17.6927 19.3418 17.875 19.3418C18.0573 19.3418 18.2322 19.2694 18.3611 19.1404C18.4901 19.0115 18.5625 18.8366 18.5625 18.6543V14.5293Z" fill="#363C43"/>
</g>
<defs>
<clipPath id="clip0_1_409">
<rect width="22" height="22" fill="white"/>
</clipPath>
</defs>
</svg>
