<svg width="24" height="24" viewBox="0 0 24 24" fill="none" xmlns="http://www.w3.org/2000/svg">
<path id="Vector" fill-rule="evenodd" clip-rule="evenodd" d="M12 0C7.47452 0 5.21178 0 3.80589 1.40589C2.53018 2.68161 2.41205 4.66286 2.40112 8.40004H1.2C0.537258 8.40004 0 8.9373 0 9.60004V10.8C0 11.1778 0.177833 11.5334 0.48 11.7601L2.4 13.2001C2.41094 16.9372 2.53018 18.9185 3.80589 20.1942C4.09651 20.4848 4.42374 20.7154 4.8 20.8983V22.8C4.8 23.4627 5.33726 24 6 24H7.8C8.46274 24 9 23.4627 9 22.8V21.5779C9.87247 21.6001 10.8651 21.6001 12 21.6001C13.1349 21.6001 14.1275 21.6001 15 21.5779V22.8C15 23.4627 15.5373 24 16.2 24H18C18.6627 24 19.2 23.4627 19.2 22.8V20.8983C19.5763 20.7154 19.9035 20.4848 20.1941 20.1942C21.4698 18.9185 21.5891 16.9372 21.6 13.2001L23.52 11.7601C23.8222 11.5334 24 11.1778 24 10.8V9.60004C24 8.9373 23.4627 8.40004 22.8 8.40004H21.5989C21.5879 4.66286 21.4698 2.68161 20.1941 1.40589C18.7882 0 16.5255 0 12 0ZM4.2 9.00004C4.2 10.6971 4.2 11.5456 4.72721 12.0728C5.25442 12.6001 6.10294 12.6001 7.8 12.6001H12H16.2C17.8971 12.6001 18.7456 12.6001 19.2728 12.0728C19.8 11.5456 19.8 10.6971 19.8 9.00004V6.00003C19.8 4.30296 19.8 3.45443 19.2728 2.92722C18.7456 2.40001 17.8971 2.40001 16.2 2.40001H12H7.8C6.10294 2.40001 5.25442 2.40001 4.72721 2.92722C4.2 3.45443 4.2 4.30296 4.2 6.00003V9.00004ZM5.1 16.8001C5.1 16.303 5.50294 15.9001 6 15.9001H7.8C8.29706 15.9001 8.7 16.303 8.7 16.8001C8.7 17.2971 8.29706 17.7001 7.8 17.7001H6C5.50294 17.7001 5.1 17.2971 5.1 16.8001ZM18.9 16.8001C18.9 16.303 18.4971 15.9001 18 15.9001H16.2C15.7029 15.9001 15.3 16.303 15.3 16.8001C15.3 17.2971 15.7029 17.7001 16.2 17.7001H18C18.4971 17.7001 18.9 17.2971 18.9 16.8001Z" fill="white"/>
</svg>
