<svg width="24" height="24" viewBox="0 0 24 24" fill="none" xmlns="http://www.w3.org/2000/svg">
<g id="Bold / Transport, Parts, Service / Bus">
<path id="Vector" fill-rule="evenodd" clip-rule="evenodd" d="M12 5C9.36013 5 8.0402 5 7.2201 5.8201C6.47594 6.56427 6.40703 7.72 6.40065 9.90002H5.7C5.3134 9.90002 5 10.2134 5 10.6V11.3C5 11.5204 5.10374 11.7278 5.28 11.86L6.4 12.7C6.40638 14.8801 6.47594 16.0358 7.2201 16.78C7.38963 16.9495 7.58051 17.084 7.8 17.1906V18.3C7.8 18.6866 8.1134 19 8.5 19H9.55C9.9366 19 10.25 18.6866 10.25 18.3V17.5871C10.7589 17.6001 11.338 17.6001 12 17.6001C12.662 17.6001 13.2411 17.6001 13.75 17.5871V18.3C13.75 18.6866 14.0634 19 14.45 19H15.5C15.8866 19 16.2 18.6866 16.2 18.3V17.1906C16.4195 17.084 16.6104 16.9495 16.7799 16.78C17.5241 16.0358 17.5936 14.8801 17.6 12.7L18.72 11.86C18.8963 11.7278 19 11.5204 19 11.3V10.6C19 10.2134 18.6866 9.90002 18.3 9.90002H17.5993C17.593 7.72 17.5241 6.56427 16.7799 5.8201C15.9598 5 14.6399 5 12 5ZM7.45 10.25C7.45 11.24 7.45 11.735 7.75754 12.0425C8.06508 12.35 8.56005 12.35 9.55 12.35H12H14.45C15.4399 12.35 15.9349 12.35 16.2425 12.0425C16.55 11.735 16.55 11.24 16.55 10.25V8.50002C16.55 7.51006 16.55 7.01508 16.2425 6.70755C15.9349 6.40001 15.4399 6.40001 14.45 6.40001H12H9.55C8.56005 6.40001 8.06508 6.40001 7.75754 6.70755C7.45 7.01508 7.45 7.51006 7.45 8.50002V10.25ZM7.975 14.8C7.975 14.5101 8.21005 14.275 8.5 14.275H9.55C9.83995 14.275 10.075 14.5101 10.075 14.8C10.075 15.09 9.83995 15.325 9.55 15.325H8.5C8.21005 15.325 7.975 15.09 7.975 14.8ZM16.025 14.8C16.025 14.5101 15.7899 14.275 15.5 14.275H14.45C14.1601 14.275 13.925 14.5101 13.925 14.8C13.925 15.09 14.1601 15.325 14.45 15.325H15.5C15.7899 15.325 16.025 15.09 16.025 14.8Z" fill="#FB3146"/>
</g>
</svg>
