<svg width="20" height="20" viewBox="0 0 20 20" fill="none" xmlns="http://www.w3.org/2000/svg">
<g id="fluent:call-28-filled">
<path id="Vector" d="M5.60747 0.930689L6.99104 0.513546C7.44766 0.376094 7.9387 0.409444 8.37254 0.607375C8.80639 0.805307 9.15342 1.1543 9.3489 1.58926L10.3189 3.7464C10.4873 4.12063 10.5342 4.53819 10.4531 4.94046C10.372 5.34272 10.167 5.70949 9.86675 5.98926L8.39033 7.36498C8.19247 7.55283 8.34247 8.28498 9.06533 9.53783C9.7889 10.7914 10.3482 11.2871 10.606 11.21L12.5403 10.6185C12.9324 10.4986 13.3522 10.5044 13.7408 10.635C14.1295 10.7657 14.4675 11.0147 14.7075 11.3471L16.086 13.2578C16.3645 13.6437 16.4934 14.1175 16.4489 14.5912C16.4043 15.0649 16.1894 15.5064 15.8439 15.8335L14.7782 16.8428C14.4341 17.1686 14.0099 17.3973 13.5486 17.5056C13.0873 17.6139 12.6055 17.5979 12.1525 17.4593C9.91961 16.7757 7.85175 14.7471 5.92104 11.4021C3.98604 8.05212 3.25533 5.2264 3.76461 2.91783C3.86733 2.45266 4.09225 2.02329 4.41618 1.67399C4.74011 1.3247 5.15134 1.06811 5.60747 0.930689Z" fill="#FB3146"/>
</g>
</svg>
