<svg width="32" height="32" viewBox="0 0 32 32" fill="none" xmlns="http://www.w3.org/2000/svg">
<g id="Bold / Shopping, Ecommerce / Cart Check">
<g id="Vector">
<path fill-rule="evenodd" clip-rule="evenodd" d="M4.05363 3.05664C3.53261 2.87346 2.96174 3.14733 2.77856 3.66835C2.59538 4.18937 2.86925 4.76024 3.39027 4.94342L3.73855 5.06587C4.6287 5.37883 5.2137 5.58622 5.64416 5.79744C6.04846 5.99582 6.22669 6.15639 6.3441 6.32821C6.46445 6.50432 6.55739 6.74622 6.60983 7.23068C6.6647 7.73762 6.66606 8.39791 6.66606 9.38451L6.66606 12.8534C6.66606 16.7755 6.75037 18.0699 7.90558 19.2883C9.06078 20.5067 10.92 20.5067 14.6386 20.5067H21.7091C23.7905 20.5067 24.8311 20.5067 25.5668 19.9073C26.3024 19.3078 26.5125 18.2886 26.9326 16.25L27.599 13.0171C28.0618 10.6983 28.2932 9.53897 27.7013 8.76953C27.1094 8.00008 25.087 8.00008 22.8404 8.00008H8.65612C8.6472 7.63964 8.63028 7.31172 8.59821 7.01545C8.52657 6.35361 8.37135 5.74999 7.99537 5.1998C7.61647 4.64532 7.11267 4.2902 6.52516 4.00193C5.97571 3.73233 5.27753 3.4869 4.4555 3.19792L4.05363 3.05664ZM20.6893 11.2759C21.0893 11.6568 21.1047 12.2898 20.7238 12.6897L16.9143 16.6897C16.7255 16.8879 16.4638 17.0001 16.1902 17.0001C15.9165 17.0001 15.6548 16.8879 15.466 16.6897L13.9422 15.0897C13.5613 14.6898 13.5768 14.0568 13.9767 13.6759C14.3766 13.2951 15.0096 13.3105 15.3905 13.7104L16.1902 14.5501L19.2755 11.3104C19.6564 10.9105 20.2894 10.8951 20.6893 11.2759Z" fill="white"/>
<path d="M9.99967 24.0001C11.1042 24.0001 11.9997 24.8955 11.9997 26.0001C11.9997 27.1047 11.1042 28.0001 9.99967 28.0001C8.8951 28.0001 7.99967 27.1047 7.99967 26.0001C7.99967 24.8955 8.8951 24.0001 9.99967 24.0001Z" fill="white"/>
<path d="M21.9997 24.0002C23.1042 24.0002 23.9997 24.8956 23.9997 26.0002C23.9997 27.1047 23.1042 28.0002 21.9997 28.0002C20.8951 28.0002 19.9997 27.1047 19.9997 26.0002C19.9997 24.8956 20.8951 24.0002 21.9997 24.0002Z" fill="white"/>
</g>
</g>
</svg>
