<svg width="13" height="13" viewBox="0 0 13 13" fill="none" xmlns="http://www.w3.org/2000/svg">
<g id="Bold / Like / Medal Star Square">
<path id="Vector" fill-rule="evenodd" clip-rule="evenodd" d="M5.41699 3.25H7.58366C9.11572 3.25 9.88176 3.25 10.3577 3.72595C10.8337 4.2019 10.8337 4.96794 10.8337 6.5V7.07185C10.8337 8.3749 10.8337 9.02643 10.5101 9.55001C10.1865 10.0736 9.60374 10.365 8.43825 10.9477C7.48729 11.4232 7.01181 11.6609 6.50033 11.6609C5.98885 11.6609 5.51336 11.4232 4.5624 10.9477C3.39691 10.365 2.81417 10.0736 2.49058 9.55001C2.16699 9.02643 2.16699 8.3749 2.16699 7.07185V6.5C2.16699 4.96794 2.16699 4.2019 2.64294 3.72595C3.1189 3.25 3.88493 3.25 5.41699 3.25ZM6.50033 5.41667C6.34646 5.41667 6.24354 5.60129 6.03771 5.97053L5.98446 6.06605C5.92597 6.17098 5.89673 6.22344 5.85113 6.25806C5.80553 6.29268 5.74874 6.30553 5.63516 6.33122L5.53175 6.35462C5.13205 6.44506 4.9322 6.49027 4.88466 6.64317C4.83711 6.79607 4.97335 6.95539 5.24584 7.27403L5.31634 7.35646C5.39377 7.44701 5.43249 7.49229 5.4499 7.5483C5.46732 7.6043 5.46147 7.66471 5.44976 7.78552L5.4391 7.89551C5.39791 8.32064 5.37731 8.53321 5.50179 8.6277C5.62627 8.7222 5.81339 8.63604 6.18762 8.46373L6.28444 8.41915C6.39079 8.37019 6.44396 8.3457 6.50033 8.3457C6.55669 8.3457 6.60986 8.37019 6.71621 8.41915L6.81303 8.46373C7.18727 8.63604 7.37438 8.7222 7.49886 8.6277C7.62334 8.53321 7.60274 8.32064 7.56155 7.89551L7.55089 7.78552C7.53919 7.66472 7.53333 7.6043 7.55075 7.5483C7.56816 7.49229 7.60688 7.44701 7.68431 7.35647L7.75481 7.27403C8.0273 6.95539 8.16354 6.79607 8.11599 6.64317C8.06845 6.49027 7.8686 6.44506 7.4689 6.35462L7.36549 6.33122C7.25191 6.30553 7.19512 6.29268 7.14952 6.25806C7.10392 6.22344 7.07468 6.17098 7.01619 6.06605L6.96294 5.97053C6.75711 5.60129 6.65419 5.41667 6.50033 5.41667Z" fill="white"/>
<path id="Vector_2" d="M5.95845 1.08337H7.04179C8.06316 1.08337 8.57385 1.08337 8.89115 1.40068C9.11534 1.62487 9.18113 1.9456 9.20044 2.4748C8.75581 2.43748 8.23018 2.43751 7.63695 2.43754H5.3633C4.77006 2.43751 4.24443 2.43748 3.7998 2.4748C3.81911 1.9456 3.8849 1.62487 4.10909 1.40068C4.42639 1.08337 4.93708 1.08337 5.95845 1.08337Z" fill="white"/>
</g>
</svg>
