<svg width="36" height="36" viewBox="0 0 36 36" fill="none" xmlns="http://www.w3.org/2000/svg">
<g id="uil:vk">
<path id="Vector" d="M22.6095 3H13.407C4.998 3 3 4.9995 3 13.3905V22.5945C3 31.0005 4.9845 33 13.3905 33H22.5945C31.0005 33 33 31.0155 33 22.6095V13.407C33 4.998 31.0155 3 22.6095 3ZM27.219 24.405H25.0305C24.2025 24.405 23.9535 23.7345 22.4685 22.2495C21.1725 21 20.625 20.844 20.2965 20.844C19.8435 20.844 19.719 20.9685 19.719 21.594V23.562C19.719 24.0945 19.5465 24.4065 18.156 24.4065C16.8065 24.3158 15.4979 23.9058 14.3379 23.2103C13.1779 22.5148 12.1998 21.5536 11.484 20.406C9.78475 18.291 8.60241 15.8087 8.031 13.1565C8.031 12.828 8.1555 12.531 8.781 12.531H10.9695C11.532 12.531 11.7345 12.7815 11.9535 13.359C13.0155 16.485 14.8275 19.203 15.5625 19.203C15.8445 19.203 15.9675 19.0785 15.9675 18.375V15.156C15.8745 13.6875 15.0945 13.563 15.0945 13.032C15.1045 12.8919 15.1687 12.7613 15.2734 12.6678C15.3782 12.5742 15.5152 12.5252 15.6555 12.531H19.0935C19.563 12.531 19.719 12.765 19.719 13.3275V17.6715C19.719 18.141 19.9215 18.297 20.0625 18.297C20.3445 18.297 20.562 18.141 21.078 17.625C22.1863 16.2734 23.0918 14.7676 23.766 13.155C23.8349 12.9613 23.9653 12.7955 24.1373 12.6828C24.3093 12.5701 24.5134 12.5168 24.7185 12.531H26.907C27.5625 12.531 27.702 12.8595 27.5625 13.3275C26.7667 15.1101 25.7821 16.8023 24.6255 18.375C24.39 18.735 24.2955 18.9225 24.6255 19.344C24.843 19.6725 25.6095 20.313 26.1255 20.922C26.8754 21.67 27.498 22.5353 27.969 23.484C28.1565 24.093 27.843 24.405 27.219 24.405Z" fill="#447EC4"/>
</g>
</svg>
